<?xml version="1.0" encoding="UTF-8" standalone="no"?>
<!-- Created with Inkscape (http://www.inkscape.org/) -->

<svg
   xmlns:dc="http://purl.org/dc/elements/1.1/"
   xmlns:cc="http://creativecommons.org/ns#"
   xmlns:rdf="http://www.w3.org/1999/02/22-rdf-syntax-ns#"
   xmlns:svg="http://www.w3.org/2000/svg"
   xmlns="http://www.w3.org/2000/svg"
   xmlns:sodipodi="http://sodipodi.sourceforge.net/DTD/sodipodi-0.dtd"
   xmlns:inkscape="http://www.inkscape.org/namespaces/inkscape"
   width="3200"
   height="800"
   viewBox="0 0 3200.0001 800.00005"
   version="1.1"
   id="svg8"
   inkscape:version="0.92.4 (5da689c313, 2019-01-14)"
   sodipodi:docname="logo-docs.svg"
   inkscape:export-filename="/home/felicianotech/Projects/gothamhq/graphics/logo/logo-full-light-1000x1086.png"
   inkscape:export-xdpi="7.9000001"
   inkscape:export-ydpi="7.9000001">
  <defs
     id="defs2" />
  <sodipodi:namedview
     id="base"
     pagecolor="#ffffff"
     bordercolor="#666666"
     borderopacity="1.0"
     inkscape:pageopacity="0.0"
     inkscape:pageshadow="2"
     inkscape:zoom="0.17308184"
     inkscape:cx="929.28024"
     inkscape:cy="50.744351"
     inkscape:document-units="px"
     inkscape:current-layer="layer1"
     showgrid="false"
     units="px"
     inkscape:pagecheckerboard="true"
     inkscape:window-width="3732"
     inkscape:window-height="2032"
     inkscape:window-x="108"
     inkscape:window-y="54"
     inkscape:window-maximized="1"
     showguides="true"
     inkscape:guide-bbox="true"
     fit-margin-top="0"
     fit-margin-left="0"
     fit-margin-right="0"
     fit-margin-bottom="0">
    <sodipodi:guide
       position="5088.0762,-3832.8211"
       orientation="0,1"
       id="guide893"
       inkscape:locked="false" />
    <sodipodi:guide
       position="5090.2347,-680.43486"
       orientation="1,0"
       id="guide1384"
       inkscape:locked="false" />
    <sodipodi:guide
       position="5240.2372,-682.08666"
       orientation="1,0"
       id="guide1386"
       inkscape:locked="false" />
    <sodipodi:guide
       position="5091.1923,-682.85266"
       orientation="0,1"
       id="guide1388"
       inkscape:locked="false" />
    <sodipodi:guide
       position="5241.458,-832.84706"
       orientation="0,1"
       id="guide1390"
       inkscape:locked="false" />
    <sodipodi:guide
       position="5192.2258,-3982.659"
       orientation="0,1"
       id="guide1585"
       inkscape:locked="false" />
    <sodipodi:guide
       position="5145.8821,-7357.1913"
       orientation="0,1"
       id="guide5783"
       inkscape:locked="false" />
    <sodipodi:guide
       position="5196.9495,-7507.3294"
       orientation="0,1"
       id="guide5785"
       inkscape:locked="false" />
  </sodipodi:namedview>
  <metadata
     id="metadata5">
    <rdf:RDF>
      <cc:Work
         rdf:about="">
        <dc:format>image/svg+xml</dc:format>
        <dc:type
           rdf:resource="http://purl.org/dc/dcmitype/StillImage" />
        <dc:title />
      </cc:Work>
    </rdf:RDF>
  </metadata>
  <g
     inkscape:label="Layer 1"
     inkscape:groupmode="layer"
     id="layer1"
     transform="translate(2106.874,12117.878)">
    <flowRoot
       xml:space="preserve"
       id="flowRoot938"
       style="font-style:normal;font-weight:normal;font-size:40px;line-height:1.25;font-family:sans-serif;letter-spacing:0px;word-spacing:0px;fill:#000000;fill-opacity:1;stroke:none"><flowRegion
         id="flowRegion940"><rect
           id="rect942"
           width="1308.5714"
           height="897.14288"
           x="-4845.7144"
           y="-365.71429" /></flowRegion><flowPara
         id="flowPara944" /></flowRoot>    <g
       id="g1918">
      <rect
         ry="40"
         rx="40"
         y="-12117.878"
         x="-2106.874"
         height="800"
         width="3200"
         id="rect859-2-0-1-7-5-7"
         style="opacity:1;vector-effect:none;fill:#ffffff;fill-opacity:1;stroke:none;stroke-width:55.39799881;stroke-linecap:round;stroke-linejoin:round;stroke-miterlimit:4;stroke-dasharray:none;stroke-dashoffset:0;stroke-opacity:1" />
      <g
         id="g1900">
        <g
           id="g1878">
          <rect
             y="-12067.878"
             x="-2056.874"
             height="700"
             width="2400"
             id="rect859-2-0-1-7-5"
             style="opacity:1;vector-effect:none;fill:#242021;fill-opacity:1;stroke:none;stroke-width:49.23752975;stroke-linecap:round;stroke-linejoin:round;stroke-miterlimit:4;stroke-dasharray:none;stroke-dashoffset:0;stroke-opacity:1" />
          <g
             id="flowRoot861-4-6-5-2-3"
             style="font-style:normal;font-variant:normal;font-weight:bold;font-stretch:normal;font-size:226.66667175px;line-height:1.25;font-family:sans-serif;-inkscape-font-specification:'sans-serif Bold';letter-spacing:-6px;word-spacing:0px;fill:#ffffff;fill-opacity:1;stroke:none"
             transform="matrix(1.8466043,0,0,1.8466043,-12467.967,-14573.853)"
             aria-label="GOTHAM">
            <path
               id="path1852"
               style="letter-spacing:-6px;fill:#ffffff;fill-opacity:1"
               d="m 5915.0508,1616.834 q -15.9375,7.7474 -33.0925,11.6211 -17.1549,3.8737 -35.4166,3.8737 -41.2826,0 -65.4102,-23.0209 -24.1276,-23.1315 -24.1276,-62.6432 0,-39.9544 24.5703,-62.8646 24.5703,-22.9101 67.2917,-22.9101 16.4909,0 31.543,3.0989 15.1627,3.099 28.5546,9.1862 v 34.1993 q -13.8346,-7.8581 -27.5585,-11.7318 -13.6133,-3.8737 -27.3373,-3.8737 -25.4557,0 -39.2904,14.2773 -13.7239,14.1667 -13.7239,40.6185 0,26.2305 13.2812,40.5078 13.2813,14.2774 37.7409,14.2774 6.6406,0 12.2852,-0.7748 5.7552,-0.8854 10.2929,-2.6562 v -32.0964 h -26.0091 v -28.5547 h 66.4063 z" />
            <path
               id="path1854"
               style="letter-spacing:-6px;fill:#ffffff;fill-opacity:1"
               d="m 6021.9414,1491.7689 q -19.4792,0 -30.2148,14.388 -10.7357,14.388 -10.7357,40.5078 0,26.0091 10.7357,40.3972 10.7356,14.388 30.2148,14.388 19.5899,0 30.3255,-14.388 10.7357,-14.3881 10.7357,-40.3972 0,-26.1198 -10.7357,-40.5078 -10.7356,-14.388 -30.3255,-14.388 z m 0,-30.8789 q 39.8438,0 62.4219,22.7995 22.5781,22.7994 22.5781,62.9752 0,40.0651 -22.5781,62.8646 -22.5781,22.7995 -62.4219,22.7995 -39.7331,0 -62.4219,-22.7995 -22.5781,-22.7995 -22.5781,-62.8646 0,-40.1758 22.5781,-62.9752 22.6888,-22.7995 62.4219,-22.7995 z" />
            <path
               id="path1856"
               style="letter-spacing:-6px;fill:#ffffff;fill-opacity:1"
               d="m 6113.3372,1463.8783 h 152.2917 v 32.207 h -54.7851 v 133.0338 h -42.6107 v -133.0338 h -54.8959 z" />
            <path
               id="path1858"
               style="letter-spacing:-6px;fill:#ffffff;fill-opacity:1"
               d="m 6281.543,1463.8783 h 42.6107 v 62.9752 h 62.8646 v -62.9752 h 42.6107 v 165.2408 h -42.6107 v -70.0586 h -62.8646 v 70.0586 h -42.6107 z" />
            <path
               id="path1860"
               style="letter-spacing:-6px;fill:#ffffff;fill-opacity:1"
               d="m 6565.7383,1599.015 h -66.6276 l -10.5143,30.1041 h -42.832 l 61.2044,-165.2408 h 50.8008 l 61.2044,165.2408 h -42.832 z m -56.0026,-30.6576 h 45.2669 l -22.5781,-65.7422 z" />
            <path
               id="path1862"
               style="letter-spacing:-6px;fill:#ffffff;fill-opacity:1"
               d="m 6634.7774,1463.8783 h 54.2318 l 37.6302,88.4309 37.8515,-88.4309 h 54.1211 v 165.2408 h -40.2864 v -120.8593 l -38.073,89.095 h -27.0052 l -38.0729,-89.095 v 120.8593 h -40.3971 z" />
          </g>
        </g>
        <g
           id="g1884">
          <rect
             y="-12067.878"
             x="343.12607"
             height="700"
             width="700"
             id="rect815-0-5-3-7-5-9-9-2"
             style="opacity:1;vector-effect:none;fill:#a20d2c;fill-opacity:1;stroke:none;stroke-width:3.65130043;stroke-linecap:round;stroke-linejoin:round;stroke-miterlimit:4;stroke-dasharray:none;stroke-dashoffset:0;stroke-opacity:1" />
          <g
             id="flowRoot861-3-8-7-6-4-1-3"
             style="font-style:normal;font-variant:normal;font-weight:bold;font-stretch:normal;font-size:173.2910614px;line-height:1.25;font-family:sans-serif;-inkscape-font-specification:'sans-serif Bold';letter-spacing:-12px;word-spacing:0px;fill:#ffffff;fill-opacity:1;stroke:none"
             transform="matrix(1.8668305,0,0,1.8668305,-10301.699,-14553.247)"
             aria-label="HQ
">
            <path
               id="path1865"
               style="font-size:173.2910614px;fill:#ffffff;fill-opacity:1"
               d="m 5761.6224,1455.5644 h 32.5767 v 48.1458 h 48.0612 v -48.1458 h 32.5767 v 126.3298 h -32.5767 v -53.5611 h -48.0612 v 53.5611 h -32.5767 z" />
            <path
               id="path1867"
               style="font-size:173.2910614px;fill:#ffffff;fill-opacity:1"
               d="m 5955.9979,1584.1788 h -2.5385 q -31.2228,0 -48.5689,-17.2614 -17.346,-17.2614 -17.346,-48.0612 0,-30.7151 17.2614,-48.1458 17.3461,-17.4306 47.7228,-17.4306 30.7151,0 47.8073,17.2614 17.1768,17.2614 17.1768,48.315 0,21.323 -9.1384,36.7228 -9.0538,15.3999 -26.146,23.1845 l 25.4691,28.4306 h -31.0536 z m -3.4692,-107.2915 q -14.8922,0 -23.0999,10.9999 -8.2076,10.9999 -8.2076,30.969 0,20.3076 8.0384,31.1383 8.0384,10.746 23.2691,10.746 14.9768,0 23.1844,-10.9999 8.2076,-10.9999 8.2076,-30.8844 0,-19.9691 -8.2076,-30.969 -8.2076,-10.9999 -23.1844,-10.9999 z" />
          </g>
        </g>
      </g>
    </g>
  </g>
</svg>
